<svg xmlns="http://www.w3.org/2000/svg" width="101.747" height="37" viewBox="0 0 101.747 37">
  <g id="language_switch" transform="translate(0 -4)">
    <path id="Icon_material-language" data-name="Icon material-language" d="M12.846,3A10.048,10.048,0,0,0,3,13.239a10.048,10.048,0,0,0,9.846,10.239,10.058,10.058,0,0,0,9.865-10.239A10.058,10.058,0,0,0,12.846,3Zm6.83,6.144H16.768A16.4,16.4,0,0,0,15.408,5.5,7.989,7.989,0,0,1,19.675,9.144Zm-6.82-4.055a14.67,14.67,0,0,1,1.882,4.055H10.973A14.67,14.67,0,0,1,12.855,5.089Zm-7.628,10.2a8.311,8.311,0,0,1,0-4.1H8.558a17.559,17.559,0,0,0-.138,2.048,17.559,17.559,0,0,0,.138,2.048Zm.808,2.048H8.943A16.4,16.4,0,0,0,10.3,20.98,7.947,7.947,0,0,1,6.035,17.335ZM8.943,9.144H6.035A7.947,7.947,0,0,1,10.3,5.5,16.4,16.4,0,0,0,8.943,9.144ZM12.855,21.39a14.67,14.67,0,0,1-1.882-4.055h3.765A14.67,14.67,0,0,1,12.855,21.39Zm2.306-6.1H10.549a15.639,15.639,0,0,1-.158-2.048,15.5,15.5,0,0,1,.158-2.048h4.612a15.5,15.5,0,0,1,.158,2.048A15.639,15.639,0,0,1,15.162,15.287Zm.246,5.693a16.4,16.4,0,0,0,1.36-3.645h2.907a7.989,7.989,0,0,1-4.267,3.645Zm1.744-5.693a17.559,17.559,0,0,0,.138-2.048,17.559,17.559,0,0,0-.138-2.048h3.331a8.311,8.311,0,0,1,0,4.1Z" transform="translate(71.62 9.373)" fill="#f4cf1b"/>
    <text id="FRAN" transform="translate(14.747 30)" fill="#1a519e" font-size="20" font-family="Cairo-SemiBold, Cairo" font-weight="600"><tspan x="0" y="0">FRAN</tspan></text>
    <g id="Tracé_439" data-name="Tracé 439" transform="translate(0 5.37)" fill="none">
      <path d="M9.783,0H91.964a9.783,9.783,0,0,1,9.783,9.783V25.437a9.783,9.783,0,0,1-9.783,9.783H9.783A9.783,9.783,0,0,1,0,25.437V9.783A9.783,9.783,0,0,1,9.783,0Z" stroke="none"/>
      <path d="M 9.783409118652344 0.9999923706054688 C 4.940216064453125 0.9999923706054688 0.9999923706054688 4.940219879150391 0.9999923706054688 9.783407211303711 L 0.9999923706054688 25.43684768676758 C 0.9999923706054688 30.28003311157227 4.940216064453125 34.22024536132812 9.783409118652344 34.22024536132812 L 91.9639892578125 34.22024536132812 C 96.80718231201172 34.22024536132812 100.7473907470703 30.28003311157227 100.7473907470703 25.43684768676758 L 100.7473907470703 9.783407211303711 C 100.7473907470703 4.940219879150391 96.80718231201172 0.9999923706054688 91.9639892578125 0.9999923706054688 L 9.783409118652344 0.9999923706054688 M 9.783409118652344 -7.62939453125e-06 L 91.9639892578125 -7.62939453125e-06 C 97.36721801757812 -7.62939453125e-06 101.7473907470703 4.380180358886719 101.7473907470703 9.783407211303711 L 101.7473907470703 25.43684768676758 C 101.7473907470703 30.84007263183594 97.36721801757812 35.22024536132812 91.9639892578125 35.22024536132812 L 9.783409118652344 35.22024536132812 C 4.380180358886719 35.22024536132812 -7.62939453125e-06 30.84007263183594 -7.62939453125e-06 25.43684768676758 L -7.62939453125e-06 9.783407211303711 C -7.62939453125e-06 4.380180358886719 4.380180358886719 -7.62939453125e-06 9.783409118652344 -7.62939453125e-06 Z" stroke="none" fill="#1a519e"/>
    </g>
  </g>
</svg>
