<svg xmlns="http://www.w3.org/2000/svg" width="19.711" height="20.479" viewBox="0 0 19.711 20.479">
  <path id="Icon_material-language" data-name="Icon material-language" d="M12.846,3A10.048,10.048,0,0,0,3,13.239a10.048,10.048,0,0,0,9.846,10.239,10.058,10.058,0,0,0,9.865-10.239A10.058,10.058,0,0,0,12.846,3Zm6.83,6.144H16.768A16.4,16.4,0,0,0,15.408,5.5,7.989,7.989,0,0,1,19.675,9.144Zm-6.82-4.055a14.67,14.67,0,0,1,1.882,4.055H10.973A14.67,14.67,0,0,1,12.855,5.089Zm-7.628,10.2a8.311,8.311,0,0,1,0-4.1H8.558a17.559,17.559,0,0,0-.138,2.048,17.559,17.559,0,0,0,.138,2.048Zm.808,2.048H8.943A16.4,16.4,0,0,0,10.3,20.98,7.947,7.947,0,0,1,6.035,17.335ZM8.943,9.144H6.035A7.947,7.947,0,0,1,10.3,5.5,16.4,16.4,0,0,0,8.943,9.144ZM12.855,21.39a14.67,14.67,0,0,1-1.882-4.055h3.765A14.67,14.67,0,0,1,12.855,21.39Zm2.306-6.1H10.549a15.639,15.639,0,0,1-.158-2.048,15.5,15.5,0,0,1,.158-2.048h4.612a15.5,15.5,0,0,1,.158,2.048A15.639,15.639,0,0,1,15.162,15.287Zm.246,5.693a16.4,16.4,0,0,0,1.36-3.645h2.907a7.989,7.989,0,0,1-4.267,3.645Zm1.744-5.693a17.559,17.559,0,0,0,.138-2.048,17.559,17.559,0,0,0-.138-2.048h3.331a8.311,8.311,0,0,1,0,4.1Z" transform="translate(-3 -3)" fill="#f4cf1b"/>
</svg>
